<svg width="1187" height="225" viewBox="0 0 1187 225" fill="none" xmlns="http://www.w3.org/2000/svg">
<mask id="path-1-outside-1_392_283" maskUnits="userSpaceOnUse" x="-0.475143" y="-0.94043" width="1187" height="226" fill="black">
<rect fill="white" x="-0.475143" y="-0.94043" width="1187" height="226"/>
<path d="M0.999998 10.5141H44.4254L90.2905 122.412H92.2422L138.107 10.5141H181.533V177.06H147.378V68.6586H145.995L102.895 176.246H79.6374L36.5373 68.252H35.1548V177.06H0.999998V10.5141ZM265.185 179.499C252.553 179.499 241.629 176.816 232.413 171.448C223.251 166.027 216.176 158.491 211.188 148.841C206.2 139.137 203.706 127.887 203.706 115.093C203.706 102.19 206.2 90.9135 211.188 81.2634C216.176 71.5591 223.251 64.0233 232.413 58.6562C241.629 53.2348 252.553 50.5241 265.185 50.5241C277.817 50.5241 288.714 53.2348 297.876 58.6562C307.093 64.0233 314.195 71.5591 319.182 81.2634C324.17 90.9135 326.664 102.19 326.664 115.093C326.664 127.887 324.17 139.137 319.182 148.841C314.195 158.491 307.093 166.027 297.876 171.448C288.714 176.816 277.817 179.499 265.185 179.499ZM265.348 152.663C271.094 152.663 275.892 151.037 279.742 147.784C283.591 144.477 286.491 139.977 288.443 134.285C290.449 128.592 291.452 122.114 291.452 114.849C291.452 107.584 290.449 101.106 288.443 95.4133C286.491 89.7208 283.591 85.221 279.742 81.914C275.892 78.6069 271.094 76.9534 265.348 76.9534C259.547 76.9534 254.668 78.6069 250.71 81.914C246.807 85.221 243.852 89.7208 241.846 95.4133C239.894 101.106 238.918 107.584 238.918 114.849C238.918 122.114 239.894 128.592 241.846 134.285C243.852 139.977 246.807 144.477 250.71 147.784C254.668 151.037 259.547 152.663 265.348 152.663ZM348.695 177.06V10.5141H383.338V73.1313H384.395C385.913 69.77 388.109 66.3545 390.982 62.8849C393.91 59.3609 397.705 56.4334 402.367 54.1022C407.084 51.7168 412.939 50.5241 419.933 50.5241C429.041 50.5241 437.444 52.9095 445.142 57.6803C452.84 62.3969 458.994 69.5261 463.602 79.0677C468.21 88.5552 470.514 100.455 470.514 114.768C470.514 128.701 468.264 140.465 463.765 150.061C459.319 159.603 453.247 166.84 445.549 171.774C437.905 176.653 429.339 179.093 419.851 179.093C413.129 179.093 407.409 177.981 402.693 175.758C398.03 173.536 394.208 170.744 391.226 167.382C388.244 163.967 385.967 160.524 384.395 157.055H382.85V177.06H348.695ZM382.606 114.605C382.606 122.032 383.636 128.511 385.696 134.041C387.757 139.571 390.738 143.881 394.642 146.971C398.545 150.007 403.289 151.525 408.873 151.525C414.511 151.525 419.282 149.98 423.185 146.889C427.089 143.745 430.043 139.408 432.049 133.878C434.11 128.294 435.14 121.87 435.14 114.605C435.14 107.395 434.137 101.052 432.131 95.5759C430.125 90.1003 427.17 85.8174 423.267 82.7272C419.363 79.637 414.565 78.0919 408.873 78.0919C403.235 78.0919 398.464 79.5828 394.56 82.5645C390.711 85.5463 387.757 89.775 385.696 95.2506C383.636 100.726 382.606 107.178 382.606 114.605ZM492.485 177.06V52.1505H527.128V177.06H492.485ZM509.887 36.0489C504.737 36.0489 500.319 34.3412 496.632 30.9257C493 27.456 491.184 23.3086 491.184 18.4836C491.184 13.7127 493 9.61958 496.632 6.2041C500.319 2.7344 504.737 0.999547 509.887 0.999547C515.038 0.999547 519.429 2.7344 523.061 6.2041C526.748 9.61958 528.591 13.7127 528.591 18.4836C528.591 23.3086 526.748 27.456 523.061 30.9257C519.429 34.3412 515.038 36.0489 509.887 36.0489ZM633.834 123.876V52.1505H668.477V177.06H635.217V154.371H633.916C631.097 161.69 626.407 167.572 619.847 172.018C613.342 176.463 605.399 178.686 596.02 178.686C587.671 178.686 580.325 176.789 573.982 172.994C567.639 169.199 562.679 163.804 559.1 156.811C555.577 149.817 553.787 141.441 553.733 131.682V52.1505H588.376V125.502C588.43 132.875 590.409 138.703 594.312 142.986C598.216 147.269 603.448 149.41 610.007 149.41C614.182 149.41 618.085 148.462 621.718 146.564C625.35 144.612 628.278 141.739 630.5 137.944C632.777 134.149 633.889 129.46 633.834 123.876ZM798.971 87.7691L767.255 89.7208C766.713 87.0101 765.548 84.5705 763.759 82.4019C761.97 80.1791 759.611 78.4172 756.684 77.116C753.81 75.7607 750.368 75.083 746.356 75.083C740.989 75.083 736.462 76.2215 732.775 78.4985C729.089 80.7213 727.246 83.703 727.246 87.4438C727.246 90.4256 728.438 92.9465 730.824 95.0067C733.209 97.0668 737.302 98.7203 743.103 99.9672L765.71 104.521C777.854 107.015 786.908 111.027 792.872 116.557C798.835 122.087 801.817 129.351 801.817 138.351C801.817 146.537 799.404 153.72 794.579 159.901C789.809 166.081 783.249 170.906 774.9 174.376C766.605 177.791 757.036 179.499 746.193 179.499C729.658 179.499 716.484 176.057 706.671 169.171C696.913 162.232 691.193 152.799 689.513 140.872L723.586 139.083C724.616 144.125 727.11 147.974 731.068 150.63C735.025 153.233 740.094 154.534 746.275 154.534C752.347 154.534 757.226 153.368 760.912 151.037C764.653 148.651 766.551 145.588 766.605 141.848C766.551 138.703 765.222 136.128 762.62 134.122C760.018 132.062 756.006 130.49 750.585 129.405L728.953 125.095C716.755 122.656 707.674 118.427 701.711 112.409C695.801 106.392 692.847 98.7203 692.847 89.3955C692.847 81.3718 695.015 74.4595 699.352 68.6586C703.744 62.8577 709.897 58.3851 717.812 55.2407C725.782 52.0963 735.107 50.5241 745.787 50.5241C761.563 50.5241 773.978 53.8582 783.032 60.5265C792.14 67.1949 797.453 76.2757 798.971 87.7691ZM874.993 177.06V10.5141H985.264V39.5457H910.205V79.2304H977.945V108.262H910.205V177.06H874.993ZM1041.8 10.5141V177.06H1007.15V10.5141H1041.8ZM1089.79 223.9C1085.4 223.9 1081.28 223.548 1077.43 222.843C1073.63 222.193 1070.49 221.352 1068 220.322L1075.8 194.462C1079.87 195.709 1083.53 196.387 1086.78 196.495C1090.09 196.604 1092.93 195.845 1095.32 194.218C1097.76 192.592 1099.74 189.827 1101.26 185.924L1103.29 180.638L1058.48 52.1505H1094.91L1120.77 143.881H1122.07L1148.18 52.1505H1184.85L1136.3 190.559C1133.97 197.281 1130.8 203.137 1126.79 208.124C1122.83 213.166 1117.82 217.042 1111.75 219.753C1105.67 222.518 1098.36 223.9 1089.79 223.9Z"/>
</mask>
<path d="M0.999998 10.5141V9.51411H-1.90735e-06V10.5141H0.999998ZM44.4254 10.5141L45.3507 10.1348L45.0963 9.51411H44.4254V10.5141ZM90.2905 122.412L89.3652 122.791L89.6196 123.412H90.2905V122.412ZM92.2422 122.412V123.412H92.913L93.1675 122.791L92.2422 122.412ZM138.107 10.5141V9.51411H137.436L137.182 10.1348L138.107 10.5141ZM181.533 10.5141H182.533V9.51411H181.533V10.5141ZM181.533 177.06V178.06H182.533V177.06H181.533ZM147.378 177.06H146.378V178.06H147.378V177.06ZM147.378 68.6586H148.378V67.6586H147.378V68.6586ZM145.995 68.6586V67.6586H145.319L145.067 68.2868L145.995 68.6586ZM102.895 176.246V177.246H103.572L103.824 176.618L102.895 176.246ZM79.6374 176.246L78.7087 176.617L78.9598 177.246H79.6374V176.246ZM36.5373 68.252L37.4661 67.8814L37.2149 67.252H36.5373V68.252ZM35.1548 68.252V67.252H34.1548V68.252H35.1548ZM35.1548 177.06V178.06H36.1548V177.06H35.1548ZM0.999998 177.06H-1.90735e-06V178.06H0.999998V177.06ZM0.999998 10.5141V11.5141H44.4254V10.5141V9.51411H0.999998V10.5141ZM44.4254 10.5141L43.5001 10.8934L89.3652 122.791L90.2905 122.412L91.2158 122.033L45.3507 10.1348L44.4254 10.5141ZM90.2905 122.412V123.412H92.2422V122.412V121.412H90.2905V122.412ZM92.2422 122.412L93.1675 122.791L139.033 10.8934L138.107 10.5141L137.182 10.1348L91.3169 122.033L92.2422 122.412ZM138.107 10.5141V11.5141H181.533V10.5141V9.51411H138.107V10.5141ZM181.533 10.5141H180.533V177.06H181.533H182.533V10.5141H181.533ZM181.533 177.06V176.06H147.378V177.06V178.06H181.533V177.06ZM147.378 177.06H148.378V68.6586H147.378H146.378V177.06H147.378ZM147.378 68.6586V67.6586H145.995V68.6586V69.6586H147.378V68.6586ZM145.995 68.6586L145.067 68.2868L101.967 175.874L102.895 176.246L103.824 176.618L146.924 69.0305L145.995 68.6586ZM102.895 176.246V175.246H79.6374V176.246V177.246H102.895V176.246ZM79.6374 176.246L80.5662 175.876L37.4661 67.8814L36.5373 68.252L35.6085 68.6227L78.7087 176.617L79.6374 176.246ZM36.5373 68.252V67.252H35.1548V68.252V69.252H36.5373V68.252ZM35.1548 68.252H34.1548V177.06H35.1548H36.1548V68.252H35.1548ZM35.1548 177.06V176.06H0.999998V177.06V178.06H35.1548V177.06ZM0.999998 177.06H2V10.5141H0.999998H-1.90735e-06V177.06H0.999998ZM232.413 171.448L231.904 172.309L231.91 172.313L232.413 171.448ZM211.188 148.841L210.299 149.298L210.3 149.3L211.188 148.841ZM211.188 81.2634L212.076 81.7225L212.077 81.7205L211.188 81.2634ZM232.413 58.6562L232.918 59.519L232.92 59.5181L232.413 58.6562ZM297.876 58.6562L297.367 59.5168L297.373 59.5203L297.876 58.6562ZM319.182 81.2634L318.293 81.7205L318.294 81.7225L319.182 81.2634ZM319.182 148.841L320.071 149.3L320.072 149.298L319.182 148.841ZM297.876 171.448L298.382 172.311L298.383 172.31L297.876 171.448ZM279.742 147.784L280.387 148.548L280.393 148.543L279.742 147.784ZM288.443 134.285L287.5 133.952L287.497 133.96L288.443 134.285ZM288.443 95.4133L287.497 95.7376L287.5 95.7456L288.443 95.4133ZM250.71 81.914L250.069 81.1466L250.064 81.151L250.71 81.914ZM241.846 95.4133L240.903 95.0809L240.9 95.0889L241.846 95.4133ZM241.846 134.285L240.9 134.609L240.903 134.617L241.846 134.285ZM250.71 147.784L250.064 148.547L250.069 148.552L250.075 148.557L250.71 147.784ZM265.185 179.499V178.499C252.697 178.499 241.954 175.847 232.916 170.584L232.413 171.448L231.91 172.313C241.305 177.784 252.409 180.499 265.185 180.499V179.499ZM232.413 171.448L232.922 170.588C223.925 165.264 216.98 157.869 212.076 148.382L211.188 148.841L210.3 149.3C215.372 159.114 222.576 166.79 231.904 172.309L232.413 171.448ZM211.188 148.841L212.077 148.384C207.174 138.844 204.706 127.756 204.706 115.093H203.706H202.706C202.706 128.019 205.227 139.43 210.299 149.298L211.188 148.841ZM203.706 115.093H204.706C204.706 102.32 207.175 91.2064 212.076 81.7225L211.188 81.2634L210.3 80.8042C205.226 90.6206 202.706 102.06 202.706 115.093H203.706ZM211.188 81.2634L212.077 81.7205C216.981 72.1803 223.925 64.7874 232.918 59.519L232.413 58.6562L231.907 57.7933C222.577 63.2593 215.371 70.9379 210.299 80.8063L211.188 81.2634ZM232.413 58.6562L232.92 59.5181C241.957 54.2023 252.699 51.5241 265.185 51.5241V50.5241V49.5241C252.408 49.5241 241.302 52.2672 231.906 57.7942L232.413 58.6562ZM265.185 50.5241V51.5241C277.671 51.5241 288.386 54.2024 297.367 59.5168L297.876 58.6562L298.385 57.7955C289.042 52.2672 277.963 49.5241 265.185 49.5241V50.5241ZM297.876 58.6562L297.373 59.5203C306.42 64.7891 313.39 72.1818 318.293 81.7205L319.182 81.2634L320.072 80.8063C314.999 70.9364 307.765 63.2576 298.379 57.792L297.876 58.6562ZM319.182 81.2634L318.294 81.7225C323.196 91.2064 325.664 102.32 325.664 115.093H326.664H327.664C327.664 102.06 325.144 90.6206 320.071 80.8042L319.182 81.2634ZM326.664 115.093H325.664C325.664 127.756 323.196 138.844 318.293 148.384L319.182 148.841L320.072 149.298C325.144 139.43 327.664 128.019 327.664 115.093H326.664ZM319.182 148.841L318.294 148.382C313.391 157.867 306.42 165.262 297.369 170.586L297.876 171.448L298.383 172.31C307.765 166.792 314.998 159.115 320.071 149.3L319.182 148.841ZM297.876 171.448L297.371 170.586C288.389 175.847 277.673 178.499 265.185 178.499V179.499V180.499C277.961 180.499 289.039 177.784 298.382 172.311L297.876 171.448ZM265.348 152.663V153.663C271.296 153.663 276.332 151.974 280.387 148.548L279.742 147.784L279.096 147.02C275.453 150.099 270.893 151.663 265.348 151.663V152.663ZM279.742 147.784L280.393 148.543C284.401 145.1 287.39 140.438 289.389 134.609L288.443 134.285L287.497 133.96C285.592 139.516 282.781 143.854 279.09 147.025L279.742 147.784ZM288.443 134.285L289.386 134.617C291.436 128.799 292.452 122.204 292.452 114.849H291.452H290.452C290.452 122.023 289.461 128.386 287.5 133.952L288.443 134.285ZM291.452 114.849H292.452C292.452 107.493 291.436 100.899 289.386 95.0809L288.443 95.4133L287.5 95.7456C289.461 101.312 290.452 107.675 290.452 114.849H291.452ZM288.443 95.4133L289.389 95.0889C287.39 89.2596 284.401 84.5984 280.393 81.1555L279.742 81.914L279.09 82.6725C282.781 85.8436 285.592 90.182 287.497 95.7376L288.443 95.4133ZM279.742 81.914L280.393 81.1555C276.339 77.6719 271.3 75.9534 265.348 75.9534V76.9534V77.9534C270.889 77.9534 275.446 79.5419 279.09 82.6725L279.742 81.914ZM265.348 76.9534V75.9534C259.344 75.9534 254.229 77.6705 250.069 81.1466L250.71 81.914L251.351 82.6813C255.106 79.5434 259.75 77.9534 265.348 77.9534V76.9534ZM250.71 81.914L250.064 81.151C246.002 84.5918 242.957 89.2514 240.903 95.0809L241.846 95.4133L242.789 95.7456C244.747 90.1902 247.611 85.8502 251.356 82.677L250.71 81.914ZM241.846 95.4133L240.9 95.0889C238.906 100.905 237.918 107.496 237.918 114.849H238.918H239.918C239.918 107.673 240.883 101.307 242.792 95.7376L241.846 95.4133ZM238.918 114.849H237.918C237.918 122.202 238.906 128.793 240.9 134.609L241.846 134.285L242.792 133.96C240.883 128.391 239.918 122.025 239.918 114.849H238.918ZM241.846 134.285L240.903 134.617C242.957 140.447 246.002 145.106 250.064 148.547L250.71 147.784L251.356 147.021C247.611 143.848 244.747 139.508 242.789 133.952L241.846 134.285ZM250.71 147.784L250.075 148.557C254.235 151.976 259.348 153.663 265.348 153.663V152.663V151.663C259.746 151.663 255.1 150.098 251.345 147.011L250.71 147.784ZM348.695 177.06H347.695V178.06H348.695V177.06ZM348.695 10.5141V9.51411H347.695V10.5141H348.695ZM383.338 10.5141H384.338V9.51411H383.338V10.5141ZM383.338 73.1313H382.338V74.1313H383.338V73.1313ZM384.395 73.1313V74.1313H385.041L385.307 73.5429L384.395 73.1313ZM390.982 62.8849L390.213 62.2458L390.212 62.247L390.982 62.8849ZM402.367 54.1022L402.814 54.9966L402.819 54.9946L402.367 54.1022ZM445.142 57.6803L444.615 58.5303L444.62 58.533L445.142 57.6803ZM463.602 79.0677L462.701 79.5026L462.702 79.5046L463.602 79.0677ZM463.765 150.061L462.859 149.636L462.858 149.639L463.765 150.061ZM445.549 171.774L446.087 172.617L446.088 172.616L445.549 171.774ZM402.692 175.758L402.262 176.661L402.266 176.663L402.692 175.758ZM391.226 167.382L390.473 168.04L390.478 168.046L391.226 167.382ZM384.395 157.055L385.306 156.642L385.04 156.055H384.395V157.055ZM382.85 157.055V156.055H381.85V157.055H382.85ZM382.85 177.06V178.06H383.85V177.06H382.85ZM394.642 146.971L394.021 147.755L394.028 147.76L394.642 146.971ZM423.185 146.889L423.806 147.674L423.813 147.668L423.185 146.889ZM432.049 133.878L431.111 133.532L431.109 133.537L432.049 133.878ZM432.131 95.5759L433.07 95.2319V95.2319L432.131 95.5759ZM423.267 82.7272L423.887 81.9431V81.9431L423.267 82.7272ZM394.56 82.5645L393.953 81.7699L393.948 81.774L394.56 82.5645ZM385.696 95.2506L384.76 94.8985V94.8985L385.696 95.2506ZM348.695 177.06H349.695V10.5141H348.695H347.695V177.06H348.695ZM348.695 10.5141V11.5141H383.338V10.5141V9.51411H348.695V10.5141ZM383.338 10.5141H382.338V73.1313H383.338H384.338V10.5141H383.338ZM383.338 73.1313V74.1313H384.395V73.1313V72.1313H383.338V73.1313ZM384.395 73.1313L385.307 73.5429C386.781 70.2786 388.924 66.9382 391.752 63.5227L390.982 62.8849L390.212 62.247C387.294 65.7709 385.046 69.2614 383.484 72.7197L384.395 73.1313ZM390.982 62.8849L391.751 63.5239C394.579 60.1202 398.259 57.2744 402.814 54.9966L402.367 54.1022L401.92 53.2078C397.151 55.5924 393.241 58.6017 390.213 62.2458L390.982 62.8849ZM402.367 54.1022L402.819 54.9946C407.357 52.699 413.047 51.5241 419.933 51.5241V50.5241V49.5241C412.831 49.5241 406.81 50.7346 401.916 53.2098L402.367 54.1022ZM419.933 50.5241V51.5241C428.856 51.5241 437.076 53.8581 444.615 58.5303L445.142 57.6803L445.669 56.8303C437.811 51.9608 429.226 49.5241 419.933 49.5241V50.5241ZM445.142 57.6803L444.62 58.533C452.128 63.1331 458.162 70.1031 462.701 79.5026L463.602 79.0677L464.502 78.6328C459.826 68.9491 453.553 61.6607 445.665 56.8276L445.142 57.6803ZM463.602 79.0677L462.702 79.5046C467.225 88.8163 469.514 100.555 469.514 114.768H470.514H471.514C471.514 100.355 469.195 88.294 464.501 78.6308L463.602 79.0677ZM470.514 114.768H469.514C469.514 128.598 467.28 140.208 462.859 149.636L463.765 150.061L464.67 150.486C469.248 140.722 471.514 128.803 471.514 114.768H470.514ZM463.765 150.061L462.858 149.639C458.48 159.035 452.525 166.115 445.009 170.932L445.549 171.774L446.088 172.616C453.969 167.565 460.158 160.17 464.671 150.483L463.765 150.061ZM445.549 171.774L445.011 170.931C437.535 175.703 429.157 178.093 419.851 178.093V179.093V180.093C429.52 180.093 438.274 177.603 446.087 172.617L445.549 171.774ZM419.851 179.093V178.093C413.235 178.093 407.669 176.998 403.119 174.854L402.692 175.758L402.266 176.663C407.149 178.964 413.022 180.093 419.851 180.093V179.093ZM402.692 175.758L403.123 174.856C398.563 172.682 394.855 169.966 391.974 166.719L391.226 167.382L390.478 168.046C393.561 171.521 397.497 174.389 402.262 176.661L402.692 175.758ZM391.226 167.382L391.98 166.725C389.05 163.369 386.831 160.008 385.306 156.642L384.395 157.055L383.484 157.467C385.104 161.041 387.439 164.565 390.473 168.04L391.226 167.382ZM384.395 157.055V156.055H382.85V157.055V158.055H384.395V157.055ZM382.85 157.055H381.85V177.06H382.85H383.85V157.055H382.85ZM382.85 177.06V176.06H348.695V177.06V178.06H382.85V177.06ZM382.606 114.605H381.606C381.606 122.122 382.648 128.724 384.759 134.39L385.696 134.041L386.633 133.692C384.624 128.298 383.606 121.943 383.606 114.605H382.606ZM385.696 134.041L384.759 134.39C386.871 140.059 389.95 144.532 394.021 147.755L394.642 146.971L395.262 146.187C391.527 143.229 388.642 139.082 386.633 133.692L385.696 134.041ZM394.642 146.971L394.028 147.76C398.129 150.95 403.097 152.525 408.873 152.525V151.525V150.525C403.481 150.525 398.961 149.063 395.256 146.181L394.642 146.971ZM408.873 151.525V152.525C414.705 152.525 419.703 150.922 423.806 147.674L423.185 146.889L422.565 146.105C418.861 149.037 414.317 150.525 408.873 150.525V151.525ZM423.185 146.889L423.813 147.668C427.881 144.391 430.932 139.891 432.989 134.219L432.049 133.878L431.109 133.537C429.155 138.925 426.296 143.1 422.558 146.111L423.185 146.889ZM432.049 133.878L432.988 134.224C435.097 128.508 436.14 121.963 436.14 114.605H435.14H434.14C434.14 121.777 433.123 128.08 431.111 133.532L432.049 133.878ZM435.14 114.605H436.14C436.14 107.304 435.124 100.84 433.07 95.2319L432.131 95.5759L431.192 95.9199C433.149 101.263 434.14 107.485 434.14 114.605H435.14ZM432.131 95.5759L433.07 95.2319C431.011 89.6132 427.959 85.1662 423.887 81.9431L423.267 82.7272L422.646 83.5112C426.382 86.4685 429.238 90.5874 431.192 95.9199L432.131 95.5759ZM423.267 82.7272L423.887 81.9431C419.782 78.6934 414.757 77.0919 408.873 77.0919V78.0919V79.0919C414.374 79.0919 418.944 80.5806 422.646 83.5112L423.267 82.7272ZM408.873 78.0919V77.0919C403.049 77.0919 398.056 78.6357 393.953 81.7699L394.56 82.5645L395.167 83.3592C398.871 80.5298 403.42 79.0919 408.873 79.0919V78.0919ZM394.56 82.5645L393.948 81.774C389.925 84.8901 386.873 89.2847 384.76 94.8985L385.696 95.2506L386.632 95.6028C388.641 90.2653 391.497 86.2025 395.173 83.3551L394.56 82.5645ZM385.696 95.2506L384.76 94.8985C382.648 100.512 381.606 107.088 381.606 114.605H382.606H383.606C383.606 107.267 384.624 100.94 386.632 95.6028L385.696 95.2506ZM492.485 177.06H491.485V178.06H492.485V177.06ZM492.485 52.1505V51.1505H491.485V52.1505H492.485ZM527.128 52.1505H528.128V51.1505H527.128V52.1505ZM527.128 177.06V178.06H528.128V177.06H527.128ZM496.632 30.9257L495.941 31.6488L495.947 31.6541L495.952 31.6592L496.632 30.9257ZM496.632 6.2041L497.317 6.93262L497.317 6.9323L496.632 6.2041ZM523.061 6.2041L522.371 6.92721L522.376 6.93248L522.382 6.93766L523.061 6.2041ZM523.061 30.9257L523.746 31.6542L523.747 31.6539L523.061 30.9257ZM492.485 177.06H493.485V52.1505H492.485H491.485V177.06H492.485ZM492.485 52.1505V53.1505H527.128V52.1505V51.1505H492.485V52.1505ZM527.128 52.1505H526.128V177.06H527.128H528.128V52.1505H527.128ZM527.128 177.06V176.06H492.485V177.06V178.06H527.128V177.06ZM509.887 36.0489V35.0489C504.982 35.0489 500.808 33.4317 497.312 30.1921L496.632 30.9257L495.952 31.6592C499.829 35.2507 504.492 37.0489 509.887 37.0489V36.0489ZM496.632 30.9257L497.323 30.2026C493.879 26.9128 492.184 23.0231 492.184 18.4836H491.184H490.184C490.184 23.5941 492.121 27.9991 495.941 31.6488L496.632 30.9257ZM491.184 18.4836H492.184C492.184 14.0023 493.876 10.1687 497.317 6.93262L496.632 6.2041L495.947 5.47558C492.124 9.07047 490.184 13.4231 490.184 18.4836H491.184ZM496.632 6.2041L497.317 6.9323C500.815 3.64052 504.987 1.99955 509.887 1.99955V0.99955V-0.000450134C504.487 -0.000450134 499.822 1.82828 495.947 5.4759L496.632 6.2041ZM509.887 0.99955V1.99955C514.788 1.99955 518.93 3.64017 522.371 6.92721L523.061 6.2041L523.752 5.481C519.929 1.82863 515.288 -0.000450134 509.887 -0.000450134V0.99955ZM523.061 6.2041L522.382 6.93766C525.876 10.1753 527.591 14.0075 527.591 18.4836H528.591H529.591C529.591 13.418 527.62 9.0639 523.741 5.47054L523.061 6.2041ZM528.591 18.4836H527.591C527.591 23.018 525.873 26.9063 522.376 30.1975L523.061 30.9257L523.747 31.6539C527.623 28.0057 529.591 23.5992 529.591 18.4836H528.591ZM523.061 30.9257L522.376 30.1972C518.936 33.432 514.792 35.0489 509.887 35.0489V36.0489V37.0489C515.283 37.0489 519.922 35.2503 523.746 31.6542L523.061 30.9257ZM633.834 123.876H632.834L632.835 123.885L633.834 123.876ZM633.834 52.1505V51.1505H632.834V52.1505H633.834ZM668.477 52.1505H669.477V51.1505H668.477V52.1505ZM668.477 177.06V178.06H669.477V177.06H668.477ZM635.217 177.06H634.217V178.06H635.217V177.06ZM635.217 154.371H636.217V153.371H635.217V154.371ZM633.916 154.371V153.371H633.229L632.983 154.012L633.916 154.371ZM619.847 172.018L619.286 171.19L619.283 171.192L619.847 172.018ZM573.982 172.994L574.496 172.135V172.135L573.982 172.994ZM559.1 156.811L558.207 157.261L558.21 157.266L559.1 156.811ZM553.733 131.682H552.733V131.688L553.733 131.682ZM553.733 52.1505V51.1505H552.733V52.1505H553.733ZM588.376 52.1505H589.376V51.1505H588.376V52.1505ZM588.376 125.502H587.376L587.376 125.509L588.376 125.502ZM594.312 142.986L595.052 142.312V142.312L594.312 142.986ZM621.718 146.564L622.181 147.451L622.191 147.445L621.718 146.564ZM630.5 137.944L629.643 137.43L629.637 137.439L630.5 137.944ZM633.834 123.876H634.834V52.1505H633.834H632.834V123.876H633.834ZM633.834 52.1505V53.1505H668.477V52.1505V51.1505H633.834V52.1505ZM668.477 52.1505H667.477V177.06H668.477H669.477V52.1505H668.477ZM668.477 177.06V176.06H635.217V177.06V178.06H668.477V177.06ZM635.217 177.06H636.217V154.371H635.217H634.217V177.06H635.217ZM635.217 154.371V153.371H633.916V154.371V155.371H635.217V154.371ZM633.916 154.371L632.983 154.012C630.238 161.138 625.679 166.858 619.286 171.19L619.847 172.018L620.408 172.845C627.135 168.287 631.956 162.242 634.849 154.73L633.916 154.371ZM619.847 172.018L619.283 171.192C612.973 175.504 605.237 177.686 596.02 177.686V178.686V179.686C605.561 179.686 613.71 177.423 620.411 172.843L619.847 172.018ZM596.02 178.686V177.686C587.828 177.686 580.664 175.826 574.496 172.135L573.982 172.994L573.469 173.852C579.986 177.751 587.514 179.686 596.02 179.686V178.686ZM573.982 172.994L574.496 172.135C568.324 168.443 563.489 163.193 559.991 156.355L559.1 156.811L558.21 157.266C561.868 164.416 566.955 169.954 573.469 173.852L573.982 172.994ZM559.1 156.811L559.993 156.361C556.554 149.535 554.787 141.318 554.733 131.677L553.733 131.682L552.733 131.688C552.788 141.564 554.599 150.099 558.207 157.261L559.1 156.811ZM553.733 131.682H554.733V52.1505H553.733H552.733V131.682H553.733ZM553.733 52.1505V53.1505H588.376V52.1505V51.1505H553.733V52.1505ZM588.376 52.1505H587.376V125.502H588.376H589.376V52.1505H588.376ZM588.376 125.502L587.376 125.509C587.432 133.06 589.462 139.149 593.573 143.66L594.312 142.986L595.052 142.312C591.356 138.257 589.429 132.691 589.376 125.495L588.376 125.502ZM594.312 142.986L593.573 143.66C597.692 148.179 603.207 150.41 610.007 150.41V149.41V148.41C603.688 148.41 598.739 146.359 595.052 142.312L594.312 142.986ZM610.007 149.41V150.41C614.34 150.41 618.403 149.424 622.181 147.451L621.718 146.564L621.255 145.678C617.768 147.499 614.024 148.41 610.007 148.41V149.41ZM621.718 146.564L622.191 147.445C625.996 145.401 629.054 142.392 631.363 138.45L630.5 137.944L629.637 137.439C627.501 141.086 624.704 143.824 621.244 145.683L621.718 146.564ZM630.5 137.944L631.358 138.459C633.752 134.469 634.89 129.587 634.834 123.866L633.834 123.876L632.835 123.885C632.887 129.333 631.803 133.829 629.643 137.43L630.5 137.944ZM798.971 87.7691L799.032 88.7672L800.102 88.7013L799.962 87.6382L798.971 87.7691ZM767.256 89.7208L766.275 89.9169L766.446 90.7725L767.317 90.7189L767.256 89.7208ZM763.759 82.4019L762.98 83.0289L762.987 83.0383L763.759 82.4019ZM756.684 77.116L756.257 78.0205L756.267 78.0253L756.278 78.0298L756.684 77.116ZM732.775 78.4985L733.292 79.3549L733.301 79.3493L732.775 78.4985ZM730.824 95.0067L730.17 95.7635V95.7635L730.824 95.0067ZM743.103 99.9672L742.893 100.945L742.906 100.948L743.103 99.9672ZM765.71 104.521L765.912 103.542L765.908 103.541L765.71 104.521ZM792.872 116.557L792.192 117.29V117.29L792.872 116.557ZM794.579 159.901L793.791 159.285L793.788 159.29L794.579 159.901ZM774.9 174.376L775.28 175.301L775.283 175.299L774.9 174.376ZM706.671 169.171L706.092 169.986L706.097 169.99L706.671 169.171ZM689.513 140.872L689.46 139.873L688.37 139.93L688.522 141.011L689.513 140.872ZM723.586 139.083L724.566 138.882L724.394 138.039L723.534 138.084L723.586 139.083ZM731.068 150.63L730.51 151.461L730.518 151.466L731.068 150.63ZM760.912 151.037L761.447 151.882L761.45 151.88L760.912 151.037ZM766.605 141.848L767.605 141.862L767.605 141.846L767.605 141.83L766.605 141.848ZM762.62 134.122L761.999 134.906L762.01 134.914L762.62 134.122ZM750.585 129.405L750.781 128.425L750.78 128.425L750.585 129.405ZM728.953 125.095L728.757 126.076L728.758 126.076L728.953 125.095ZM701.711 112.409L700.997 113.11L701 113.113L701.711 112.409ZM699.352 68.6586L698.555 68.0551L698.552 68.0598L699.352 68.6586ZM717.812 55.2407L717.445 54.3105L717.443 54.3113L717.812 55.2407ZM783.032 60.5265L782.439 61.3317L782.441 61.3334L783.032 60.5265ZM798.971 87.7691L798.909 86.771L767.194 88.7227L767.256 89.7208L767.317 90.7189L799.032 88.7672L798.971 87.7691ZM767.256 89.7208L768.236 89.5247C767.661 86.6494 766.422 84.0591 764.53 81.7655L763.759 82.4019L762.987 83.0383C764.673 85.0818 765.766 87.3708 766.275 89.9169L767.256 89.7208ZM763.759 82.4019L764.538 81.7749C762.637 79.4137 760.145 77.5599 757.09 76.2022L756.684 77.116L756.278 78.0298C759.078 79.2744 761.302 80.9445 762.98 83.0289L763.759 82.4019ZM756.684 77.116L757.11 76.2116C754.073 74.779 750.478 74.083 746.356 74.083V75.083V76.083C750.258 76.083 753.548 76.7423 756.257 78.0205L756.684 77.116ZM746.356 75.083V74.083C740.847 74.083 736.128 75.2523 732.25 77.6477L732.775 78.4985L733.301 79.3493C736.796 77.1907 741.13 76.083 746.356 76.083V75.083ZM732.775 78.4985L732.259 77.6421C728.326 80.0135 726.246 83.2941 726.246 87.4438H727.246H728.246C728.246 84.112 729.852 81.429 733.292 79.3549L732.775 78.4985ZM727.246 87.4438H726.246C726.246 90.7345 727.579 93.5257 730.17 95.7635L730.824 95.0067L731.477 94.2498C729.298 92.3673 728.246 90.1166 728.246 87.4438H727.246ZM730.824 95.0067L730.17 95.7635C732.751 97.9927 737.049 99.6888 742.893 100.945L743.103 99.9672L743.313 98.9896C737.555 97.7519 733.667 96.1409 731.477 94.2498L730.824 95.0067ZM743.103 99.9672L742.906 100.948L765.513 105.502L765.71 104.521L765.908 103.541L743.301 98.9869L743.103 99.9672ZM765.71 104.521L765.509 105.501C777.561 107.976 786.415 111.933 792.192 117.29L792.872 116.557L793.552 115.823C787.401 110.12 778.148 106.054 765.912 103.542L765.71 104.521ZM792.872 116.557L792.192 117.29C797.928 122.609 800.817 129.597 800.817 138.351H801.817H802.817C802.817 129.106 799.742 121.564 793.552 115.823L792.872 116.557ZM801.817 138.351H800.817C800.817 146.325 798.473 153.289 793.791 159.285L794.579 159.901L795.368 160.516C800.336 154.152 802.817 146.75 802.817 138.351H801.817ZM794.579 159.901L793.788 159.29C789.139 165.312 782.73 170.039 774.516 173.453L774.9 174.376L775.283 175.299C783.768 171.774 790.478 166.851 795.371 160.512L794.579 159.901ZM774.9 174.376L774.519 173.451C766.367 176.808 756.932 178.499 746.193 178.499V179.499V180.499C757.14 180.499 766.843 178.775 775.28 175.301L774.9 174.376ZM746.193 179.499V178.499C729.788 178.499 716.837 175.083 707.246 168.353L706.671 169.171L706.097 169.99C716.131 177.03 729.528 180.499 746.193 180.499V179.499ZM706.671 169.171L707.251 168.356C697.718 161.577 692.145 152.389 690.503 140.732L689.513 140.872L688.522 141.011C690.241 153.208 696.108 162.887 706.092 169.986L706.671 169.171ZM689.513 140.872L689.565 141.87L723.639 140.081L723.586 139.083L723.534 138.084L689.46 139.873L689.513 140.872ZM723.586 139.083L722.606 139.283C723.684 144.56 726.316 148.645 730.51 151.461L731.068 150.63L731.625 149.8C727.904 147.302 725.548 143.69 724.566 138.882L723.586 139.083ZM731.068 150.63L730.518 151.466C734.682 154.204 739.958 155.534 746.275 155.534V154.534V153.534C740.231 153.534 735.369 152.261 731.617 149.795L731.068 150.63ZM746.275 154.534V155.534C752.465 155.534 757.549 154.347 761.447 151.882L760.912 151.037L760.378 150.192C756.902 152.389 752.229 153.534 746.275 153.534V154.534ZM760.912 151.037L761.45 151.88C765.414 149.353 767.545 146.006 767.605 141.862L766.605 141.848L765.605 141.833C765.557 145.171 763.893 147.95 760.375 150.194L760.912 151.037ZM766.605 141.848L767.605 141.83C767.545 138.366 766.061 135.512 763.231 133.33L762.62 134.122L762.01 134.914C764.384 136.744 765.556 139.04 765.605 141.865L766.605 141.848ZM762.62 134.122L763.241 133.338C760.458 131.135 756.267 129.522 750.781 128.425L750.585 129.405L750.389 130.386C755.746 131.457 759.578 132.989 761.999 134.906L762.62 134.122ZM750.585 129.405L750.78 128.425L729.149 124.115L728.953 125.095L728.758 126.076L750.389 130.386L750.585 129.405ZM728.953 125.095L729.149 124.115C717.06 121.697 708.193 117.53 702.421 111.705L701.711 112.409L701 113.113C707.155 119.324 716.45 123.615 728.757 126.076L728.953 125.095ZM701.711 112.409L702.424 111.709C696.719 105.898 693.847 98.4885 693.847 89.3955H692.847H691.847C691.847 98.9521 694.884 106.885 700.997 113.11L701.711 112.409ZM692.847 89.3955H693.847C693.847 81.5632 695.959 74.8668 700.153 69.2574L699.352 68.6586L698.552 68.0598C694.071 74.0523 691.847 81.1805 691.847 89.3955H692.847ZM699.352 68.6586L700.15 69.2622C704.413 63.6302 710.407 59.2587 718.182 56.17L717.812 55.2407L717.443 54.3113C709.387 57.5115 703.074 62.0852 698.555 68.0551L699.352 68.6586ZM717.812 55.2407L718.179 56.1709C726.007 53.0824 735.202 51.5241 745.787 51.5241V50.5241V49.5241C735.011 49.5241 725.557 51.1101 717.445 54.3105L717.812 55.2407ZM745.787 50.5241V51.5241C761.433 51.5241 773.614 54.8319 782.439 61.3317L783.032 60.5265L783.625 59.7214C774.342 52.8845 761.693 49.5241 745.787 49.5241V50.5241ZM783.032 60.5265L782.441 61.3334C791.322 67.8357 796.496 76.6689 797.979 87.9L798.971 87.7691L799.962 87.6382C798.409 75.8825 792.957 66.554 783.623 59.7197L783.032 60.5265ZM874.993 177.06H873.993V178.06H874.993V177.06ZM874.993 10.5141V9.51411H873.993V10.5141H874.993ZM985.264 10.5141H986.264V9.51411H985.264V10.5141ZM985.264 39.5457V40.5457H986.264V39.5457H985.264ZM910.205 39.5457V38.5457H909.205V39.5457H910.205ZM910.205 79.2304H909.205V80.2304H910.205V79.2304ZM977.945 79.2304H978.945V78.2304H977.945V79.2304ZM977.945 108.262V109.262H978.945V108.262H977.945ZM910.205 108.262V107.262H909.205V108.262H910.205ZM910.205 177.06V178.06H911.205V177.06H910.205ZM874.993 177.06H875.993V10.5141H874.993H873.993V177.06H874.993ZM874.993 10.5141V11.5141H985.264V10.5141V9.51411H874.993V10.5141ZM985.264 10.5141H984.264V39.5457H985.264H986.264V10.5141H985.264ZM985.264 39.5457V38.5457H910.205V39.5457V40.5457H985.264V39.5457ZM910.205 39.5457H909.205V79.2304H910.205H911.205V39.5457H910.205ZM910.205 79.2304V80.2304H977.945V79.2304V78.2304H910.205V79.2304ZM977.945 79.2304H976.945V108.262H977.945H978.945V79.2304H977.945ZM977.945 108.262V107.262H910.205V108.262V109.262H977.945V108.262ZM910.205 108.262H909.205V177.06H910.205H911.205V108.262H910.205ZM910.205 177.06V176.06H874.993V177.06V178.06H910.205V177.06ZM1041.8 10.5141H1042.8V9.51411H1041.8V10.5141ZM1041.8 177.06V178.06H1042.8V177.06H1041.8ZM1007.15 177.06H1006.15V178.06H1007.15V177.06ZM1007.15 10.5141V9.51411H1006.15V10.5141H1007.15ZM1041.8 10.5141H1040.8V177.06H1041.8H1042.8V10.5141H1041.8ZM1041.8 177.06V176.06H1007.15V177.06V178.06H1041.8V177.06ZM1007.15 177.06H1008.15V10.5141H1007.15H1006.15V177.06H1007.15ZM1007.15 10.5141V11.5141H1041.8V10.5141V9.51411H1007.15V10.5141ZM1077.43 222.843L1077.61 221.86L1077.6 221.858L1077.43 222.843ZM1068 220.322L1067.04 220.033L1066.78 220.901L1067.61 221.247L1068 220.322ZM1075.8 194.462L1076.1 193.506L1075.13 193.212L1074.84 194.173L1075.8 194.462ZM1086.78 196.495L1086.75 197.495H1086.75L1086.78 196.495ZM1095.32 194.218L1094.76 193.386L1094.76 193.392L1095.32 194.218ZM1101.26 185.924L1102.19 186.286L1102.19 186.283L1101.26 185.924ZM1103.29 180.638L1104.22 180.997L1104.35 180.655L1104.23 180.308L1103.29 180.638ZM1058.48 52.1505V51.1505H1057.07L1057.54 52.4798L1058.48 52.1505ZM1094.91 52.1505L1095.87 51.8791L1095.67 51.1505H1094.91V52.1505ZM1120.77 143.881L1119.81 144.152L1120.02 144.881H1120.77V143.881ZM1122.07 143.881V144.881H1122.83L1123.04 144.154L1122.07 143.881ZM1148.18 52.1505V51.1505H1147.42L1147.22 51.8768L1148.18 52.1505ZM1184.85 52.1505L1185.8 52.4815L1186.26 51.1505H1184.85V52.1505ZM1136.3 190.559L1135.36 190.228L1135.36 190.231L1136.3 190.559ZM1126.79 208.124L1126.01 207.497L1126 207.507L1126.79 208.124ZM1111.75 219.753L1111.34 218.84L1111.33 218.843L1111.75 219.753ZM1089.79 223.9V222.9C1085.45 222.9 1081.39 222.552 1077.61 221.86L1077.43 222.843L1077.25 223.827C1081.16 224.544 1085.34 224.9 1089.79 224.9V223.9ZM1077.43 222.843L1077.6 221.858C1073.85 221.215 1070.78 220.391 1068.38 219.398L1068 220.322L1067.61 221.247C1070.2 222.314 1073.42 223.171 1077.26 223.829L1077.43 222.843ZM1068 220.322L1068.95 220.611L1076.76 194.751L1075.8 194.462L1074.84 194.173L1067.04 220.033L1068 220.322ZM1075.8 194.462L1075.51 195.418C1079.63 196.684 1083.38 197.383 1086.75 197.495L1086.78 196.495L1086.81 195.496C1083.67 195.391 1080.1 194.735 1076.1 193.506L1075.8 194.462ZM1086.78 196.495L1086.75 197.495C1090.23 197.609 1093.3 196.807 1095.88 195.045L1095.32 194.218L1094.76 193.392C1092.57 194.882 1089.94 195.598 1086.81 195.496L1086.78 196.495ZM1095.32 194.218L1095.87 195.05C1098.54 193.271 1100.63 190.302 1102.19 186.286L1101.26 185.924L1100.32 185.561C1098.85 189.352 1096.97 191.913 1094.76 193.386L1095.32 194.218ZM1101.26 185.924L1102.19 186.283L1104.22 180.997L1103.29 180.638L1102.36 180.279L1100.32 185.565L1101.26 185.924ZM1103.29 180.638L1104.23 180.308L1059.42 51.8212L1058.48 52.1505L1057.54 52.4798L1102.34 180.967L1103.29 180.638ZM1058.48 52.1505V53.1505H1094.91V52.1505V51.1505H1058.48V52.1505ZM1094.91 52.1505L1093.95 52.4218L1119.81 144.152L1120.77 143.881L1121.74 143.609L1095.87 51.8791L1094.91 52.1505ZM1120.77 143.881V144.881H1122.07V143.881V142.881H1120.77V143.881ZM1122.07 143.881L1123.04 144.154L1149.14 52.4242L1148.18 52.1505L1147.22 51.8768L1121.11 143.607L1122.07 143.881ZM1148.18 52.1505V53.1505H1184.85V52.1505V51.1505H1148.18V52.1505ZM1184.85 52.1505L1183.91 51.8195L1135.36 190.228L1136.3 190.559L1137.25 190.89L1185.8 52.4815L1184.85 52.1505ZM1136.3 190.559L1135.36 190.231C1133.06 196.857 1129.94 202.609 1126.01 207.497L1126.79 208.124L1127.57 208.751C1131.66 203.664 1134.88 197.705 1137.25 190.887L1136.3 190.559ZM1126.79 208.124L1126 207.507C1122.15 212.416 1117.27 216.193 1111.34 218.84L1111.75 219.753L1112.15 220.666C1118.37 217.892 1123.52 213.916 1127.58 208.742L1126.79 208.124ZM1111.75 219.753L1111.33 218.843C1105.42 221.534 1098.25 222.9 1089.79 222.9V223.9V224.9C1098.46 224.9 1105.93 223.502 1112.16 220.663L1111.75 219.753Z" fill="#F6F6F4" mask="url(#path-1-outside-1_392_283)"/>
</svg>
