<svg width="241" height="254" viewBox="0 0 241 254" fill="none" xmlns="http://www.w3.org/2000/svg">
<path d="M201.761 29.881C192.221 19.661 179.061 16.881 167.451 23.751C160.776 27.6079 154.71 32.4338 149.451 38.071C131.071 58.341 116.501 81.121 106.741 106.821C105.861 109.121 104.921 111.401 103.741 114.321C94.5311 96.821 85.7411 80.071 77.1311 63.801C72.1311 68.431 67.7411 72.721 63.1311 76.801C60.3711 79.211 60.4311 81.551 62.0311 84.541C70.8111 100.991 79.3911 117.541 88.3011 133.921C90.2993 137.515 92.8429 140.777 95.8411 143.591C101.721 149.131 109.131 148.771 114.721 142.971C116.697 140.937 118.379 138.639 119.721 136.141C122.213 131.505 124.453 126.738 126.431 121.861C134.671 101.231 143.971 81.191 158.331 63.971C163.511 57.751 168.741 51.541 174.491 45.871C178.261 42.151 182.561 42.621 186.021 46.641C188.962 50.0413 191.511 53.7613 193.621 57.731C201.471 72.731 205.511 88.941 208.991 105.311C213.573 127.492 216.451 149.991 217.601 172.611C218.671 191.461 218.341 210.231 214.601 228.751C213.266 235.003 211.122 241.054 208.221 246.751C205.601 251.971 201.571 252.491 196.501 249.471C194.682 248.265 192.927 246.967 191.241 245.581L190.711 246.021C191.711 247.101 192.711 248.271 193.781 249.251C200.231 254.941 206.091 254.351 211.111 247.381C212.771 245.091 214.189 242.634 215.341 240.051C222.241 224.251 224.831 207.401 225.881 190.451C227.031 172.091 227.181 153.651 227.251 135.241C227.341 111.351 225.121 87.671 218.881 64.511C215.401 51.871 210.921 39.701 201.761 29.881Z" fill="#39424E"/>
<path d="M230.711 6.44102C228.452 5.21885 226.081 4.21433 223.631 3.44102C209.821 -0.938981 195.711 -0.558981 181.631 1.39102C152.731 5.33102 125.321 14.391 98.7511 26.121C87.7011 30.991 77.0011 36.571 65.7911 41.991C61.5511 34.471 57.4511 26.901 53.0611 19.511C50.9567 15.6941 48.4127 12.1365 45.4811 8.91102C38.3311 1.58102 29.0011 1.99102 22.8211 10.101C20.024 13.9314 17.9375 18.233 16.6611 22.801C10.6011 43.811 9.00113 65.541 6.91113 87.191C6.12113 95.631 5.61113 104.021 2.70113 112.191C-0.828867 122.111 -0.518867 132.461 1.46113 142.701C2.71113 149.171 7.73113 153.551 13.6111 153.831C18.6111 154.061 22.3411 151.421 24.0911 145.831C27.2711 135.701 28.1911 125.261 28.0411 114.311L22.5511 120.421C22.6304 119.848 22.7576 119.283 22.9311 118.731C31.9311 102.071 42.9311 86.921 57.1911 74.401C78.6011 55.611 102.551 40.701 128.301 28.591C148.741 18.991 169.721 10.991 192.161 7.52102C203.011 5.84102 213.941 5.19102 224.761 7.84102C233.431 9.99102 237.571 14.361 238.001 22.201C238.191 26.101 237.561 30.051 237.301 33.981C238.602 30.664 239.482 27.197 239.921 23.661C240.731 15.931 237.511 10.141 230.711 6.44102ZM46.4311 53.681L34.6911 63.991C34.5421 64.1367 34.3514 64.2322 34.1455 64.2642C33.9396 64.2962 33.7288 64.263 33.5426 64.1694C33.3565 64.0758 33.2042 63.9263 33.1071 63.742C33.0101 63.5576 32.973 63.3475 33.0011 63.141L36.0911 40.861C36.1185 40.6634 36.2044 40.4785 36.3377 40.3301C36.4709 40.1816 36.6456 40.0764 36.8391 40.0281C37.0327 39.9797 37.2363 39.9903 37.4238 40.0585C37.6112 40.1268 37.774 40.2495 37.8911 40.411L46.5411 52.351C46.6898 52.5474 46.7607 52.7916 46.7404 53.0371C46.7201 53.2825 46.61 53.5118 46.4311 53.681Z" fill="#39424E"/>
</svg>
